<svg width="32" height="33" viewBox="0 0 32 33" fill="none" xmlns="http://www.w3.org/2000/svg">
<path d="M17.6667 9.5V4H11C9.11438 4 8.17157 4 7.58579 4.58579C7 5.17157 7 6.11438 7 8V24.75C7 26.6356 7 27.5784 7.58579 28.1642C8.17157 28.75 9.11438 28.75 11 28.75H21.6667C23.5523 28.75 24.4951 28.75 25.0809 28.1642C25.6667 27.5784 25.6667 26.6356 25.6667 24.75V12.25H20.3333C19.0763 12.25 18.4477 12.25 18.0572 11.8473C17.6667 11.4445 17.6667 10.7964 17.6667 9.5Z" fill="#7E869E" fill-opacity="0.25"/>
<path d="M17.8954 4H12.3333C9.81918 4 8.5621 4 7.78105 4.80546C7 5.61091 7 6.90727 7 9.5V23.25C7 25.8427 7 27.1391 7.78105 27.9445C8.5621 28.75 9.81918 28.75 12.3333 28.75H20.3333C22.8475 28.75 24.1046 28.75 24.8856 27.9445C25.6667 27.1391 25.6667 25.8427 25.6667 23.25V12.0141C25.6667 11.4521 25.6667 11.171 25.5652 10.9184C25.4637 10.6657 25.271 10.467 24.8856 10.0695L19.781 4.80546C19.3957 4.40804 19.203 4.20933 18.958 4.10467C18.7129 4 18.4404 4 17.8954 4Z" stroke="white" stroke-width="1.2"/>
<path d="M12.3333 17.75L20.3333 17.75" stroke="white" stroke-width="1.2" stroke-linecap="round"/>
<path d="M12.3333 23.25L17.6667 23.25" stroke="white" stroke-width="1.2" stroke-linecap="round"/>
<path d="M17.6667 4V9.5C17.6667 10.7964 17.6667 11.4445 18.0572 11.8473C18.4477 12.25 19.0763 12.25 20.3333 12.25H25.6667" stroke="white" stroke-width="1.2"/>
</svg>
