<svg width="31" height="27" viewBox="0 0 31 27" fill="none" xmlns="http://www.w3.org/2000/svg">
<path d="M25.2977 1.57022C24.4439 0.724073 23.3214 0.204603 22.1253 0.102088C20.9292 -0.000426121 19.7351 0.320496 18.7504 1.00908C21.9155 2.33031 24.501 4.74876 26.035 7.8229C26.6272 6.8481 26.8763 5.70244 26.7426 4.56898C26.609 3.43552 26.1002 2.37969 25.2977 1.57022Z" fill="white"/>
<path d="M30.4858 7.20537C29.5053 6.42457 28.2736 6.03063 27.0232 6.0979C25.7729 6.16518 24.5903 6.68902 23.6987 7.57055C22.8145 8.46295 22.2908 9.65177 22.2285 10.9081C22.1662 12.1645 22.5696 13.3995 23.3611 14.3755C24.7866 11.1957 27.3197 8.64638 30.4858 7.20537Z" fill="white"/>
<path d="M13.3313 1.7113C10.8757 1.71639 8.47658 2.45016 6.4363 3.82014C4.39602 5.19013 2.80587 7.135 1.86628 9.40964C0.926692 11.6843 0.679709 14.1869 1.15646 16.602C1.63321 19.0172 2.81237 21.2368 4.5453 22.9811L2.27996 25.2524C2.19772 25.3366 2.13282 25.4362 2.08898 25.5456C2.04513 25.655 2.02321 25.7719 2.02444 25.8898C2.02568 26.0076 2.05006 26.1241 2.09619 26.2325C2.14232 26.3409 2.20929 26.4392 2.29329 26.5216C2.37728 26.6041 2.47666 26.6692 2.58574 26.7131C2.69481 26.7571 2.81146 26.7791 2.92901 26.7778C3.04656 26.7766 3.16272 26.7521 3.27085 26.7059C3.37898 26.6596 3.47696 26.5925 3.55921 26.5083L5.92227 24.139C8.08325 25.7786 10.7222 26.6599 13.4321 26.647C16.1421 26.6341 18.7725 25.7278 20.9179 24.0678L23.352 26.5083C23.522 26.6542 23.7406 26.7304 23.9642 26.7218C24.1878 26.7131 24.3998 26.6202 24.5581 26.4616C24.7163 26.3029 24.809 26.0903 24.8176 25.8661C24.8262 25.642 24.7502 25.4228 24.6046 25.2524L22.2149 22.8921C23.9235 21.1374 25.0781 18.9166 25.5344 16.5075C25.9907 14.0983 25.7284 11.6077 24.7804 9.34725C23.8323 7.08678 22.2405 5.15675 20.2041 3.79858C18.1677 2.44041 15.7771 1.71438 13.3313 1.7113ZM19.9674 17.2361C19.8656 17.4483 19.6842 17.6115 19.4628 17.6899C19.2414 17.7684 18.998 17.7557 18.7858 17.6548L12.4429 14.573V6.77936C12.4429 6.54314 12.5365 6.31658 12.7031 6.14955C12.8697 5.98251 13.0956 5.88867 13.3313 5.88867C13.5669 5.88867 13.7928 5.98251 13.9594 6.14955C14.126 6.31658 14.2196 6.54314 14.2196 6.77936V13.4596L19.5498 16.0515C19.6562 16.1004 19.7518 16.1699 19.8313 16.256C19.9108 16.3421 19.9725 16.4431 20.013 16.5531C20.0534 16.6632 20.0718 16.7802 20.067 16.8974C20.0622 17.0146 20.0344 17.1297 19.9851 17.2361H19.9674Z" fill="white"/>
</svg>
