<svg width="28" height="28" viewBox="0 0 28 28" fill="none" xmlns="http://www.w3.org/2000/svg">
<path d="M21.3459 19.509H9.88633L7.53287 21.5181L5.17941 19.509H0.222221V20.8867C0.222221 22.6426 1.43511 24.073 2.93501 24.1011C3.0745 24.9691 3.41202 25.7532 3.92002 26.3668C4.67141 27.2743 5.76376 27.7748 6.99559 27.7748H14.5726C15.8044 27.7748 16.8968 27.2743 17.6481 26.3656C18.1561 25.752 18.4937 24.9679 18.6332 24.1C19.4299 24.0856 20.1457 23.6752 20.6422 23.0306C21.1059 22.4127 21.3533 21.6592 21.3459 20.8867V19.509Z" fill="white"/>
<path d="M5.33095 17.6722L7.53115 19.2903L9.75086 17.6722H21.3459V17.213C21.3453 16.6839 21.1623 16.1711 20.8277 15.7613C20.4931 15.3514 20.0274 15.0694 19.5091 14.9628C19.462 13.2586 18.7629 11.8322 17.4708 10.8299C16.2757 9.89773 14.6788 9.40637 12.8505 9.40637H8.71763C4.80171 9.40637 2.14919 11.6318 2.05907 14.9628C1.5408 15.0694 1.07511 15.3514 0.740516 15.7613C0.405918 16.1711 0.222868 16.6839 0.222221 17.213V17.6722H5.33095Z" fill="white"/>
<path d="M25.8852 4.81428H21.6037L22.1157 2.76735L24.6752 1.88681L24.1012 0.222168L20.5423 1.3702L19.7106 4.81428H11.2433V6.65113H12.3196L12.4263 7.56955H12.8505C15.0892 7.56955 17.0787 8.19523 18.5976 9.37884C19.4424 10.0298 20.1272 10.8652 20.5997 11.8213C20.8909 12.4144 21.0982 13.0452 21.2156 13.6954C22.071 14.2221 22.7053 15.0422 22.9999 16.0025C23.2945 16.9628 23.2294 17.9975 22.8166 18.9132C23.0584 19.5431 23.1826 20.212 23.1828 20.8867C23.1828 22.169 22.7465 23.3911 21.9544 24.3279C21.4642 24.9119 20.8363 25.3646 20.1273 25.6453C19.8857 26.3338 19.5258 26.9748 19.0637 27.5395C18.9959 27.621 18.9265 27.7008 18.8553 27.7777H23.1828C24.1012 27.7777 24.503 27.3185 24.6178 26.4575L26.7072 6.654H27.7749V4.81428H25.8852Z" fill="white"/>
</svg>
